<svg width="20" height="14" viewBox="0 0 20 14" fill="none" xmlns="http://www.w3.org/2000/svg">
<path d="M5.00065 13.6673C4.30621 13.6673 3.71593 13.4243 3.22982 12.9382C2.74371 12.452 2.50065 11.8618 2.50065 11.1673H0.833984V2.00065C0.833984 1.54232 0.997179 1.14996 1.32357 0.823568C1.64996 0.497179 2.04232 0.333984 2.50065 0.333984H14.1673V3.66732H16.6673L19.1673 7.00065V11.1673H17.5007C17.5007 11.8618 17.2576 12.452 16.7715 12.9382C16.2854 13.4243 15.6951 13.6673 15.0007 13.6673C14.3062 13.6673 13.7159 13.4243 13.2298 12.9382C12.7437 12.452 12.5007 11.8618 12.5007 11.1673H7.50065C7.50065 11.8618 7.2576 12.452 6.77148 12.9382C6.28537 13.4243 5.6951 13.6673 5.00065 13.6673ZM5.00065 12.0007C5.23676 12.0007 5.43468 11.9208 5.5944 11.7611C5.75412 11.6013 5.83398 11.4034 5.83398 11.1673C5.83398 10.9312 5.75412 10.7333 5.5944 10.5736C5.43468 10.4138 5.23676 10.334 5.00065 10.334C4.76454 10.334 4.56662 10.4138 4.4069 10.5736C4.24718 10.7333 4.16732 10.9312 4.16732 11.1673C4.16732 11.4034 4.24718 11.6013 4.4069 11.7611C4.56662 11.9208 4.76454 12.0007 5.00065 12.0007ZM2.50065 9.50065H3.16732C3.40343 9.25065 3.67426 9.04926 3.97982 8.89648C4.28537 8.74371 4.62565 8.66732 5.00065 8.66732C5.37565 8.66732 5.71593 8.74371 6.02148 8.89648C6.32704 9.04926 6.59787 9.25065 6.83398 9.50065H12.5007V2.00065H2.50065V9.50065ZM15.0007 12.0007C15.2368 12.0007 15.4347 11.9208 15.5944 11.7611C15.7541 11.6013 15.834 11.4034 15.834 11.1673C15.834 10.9312 15.7541 10.7333 15.5944 10.5736C15.4347 10.4138 15.2368 10.334 15.0007 10.334C14.7645 10.334 14.5666 10.4138 14.4069 10.5736C14.2472 10.7333 14.1673 10.9312 14.1673 11.1673C14.1673 11.4034 14.2472 11.6013 14.4069 11.7611C14.5666 11.9208 14.7645 12.0007 15.0007 12.0007ZM14.1673 7.83398H17.709L15.834 5.33398H14.1673V7.83398Z" fill="black"/>
</svg>
