<svg width="12" height="18" viewBox="0 0 12 18" fill="none" xmlns="http://www.w3.org/2000/svg">
<path d="M1.5 17.25C1.0875 17.25 0.734375 17.1031 0.440625 16.8094C0.146875 16.5156 0 16.1625 0 15.75V7.5C0 7.0875 0.146875 6.73438 0.440625 6.44063C0.734375 6.14688 1.0875 6 1.5 6H3.75V7.5H1.5V15.75H10.5V7.5H8.25V6H10.5C10.9125 6 11.2656 6.14688 11.5594 6.44063C11.8531 6.73438 12 7.0875 12 7.5V15.75C12 16.1625 11.8531 16.5156 11.5594 16.8094C11.2656 17.1031 10.9125 17.25 10.5 17.25H1.5ZM5.25 12V3.61875L4.05 4.81875L3 3.75L6 0.75L9 3.75L7.95 4.81875L6.75 3.61875V12H5.25Z" fill="black"/>
</svg>
